<mxfile host="app.diagrams.net" modified="2021-04-20T16:17:15.306Z" agent="5.0 (Windows NT 10.0; Win64; x64) AppleWebKit/537.36 (KHTML, like Gecko) Chrome/90.0.4430.72 Safari/537.36" etag="1_q8LljDrIZxsOuCalpN" version="14.6.3" type="github">
  <diagram id="rw_WCFaZcFxN_9Bmtkda" name="Page-1">
    <mxGraphModel dx="1038" dy="547" grid="1" gridSize="10" guides="1" tooltips="1" connect="1" arrows="1" fold="1" page="1" pageScale="1" pageWidth="827" pageHeight="1169" math="0" shadow="0">
      <root>
        <mxCell id="0" />
        <mxCell id="1" parent="0" />
        <mxCell id="oGuZRmNSNqqISoWWpiAV-7" value="&lt;span style=&quot;font-size: 24px&quot;&gt;&lt;font style=&quot;vertical-align: inherit&quot;&gt;&lt;font style=&quot;vertical-align: inherit&quot;&gt;&lt;font style=&quot;vertical-align: inherit&quot;&gt;&lt;font style=&quot;vertical-align: inherit&quot;&gt;&lt;font style=&quot;vertical-align: inherit&quot;&gt;&lt;font style=&quot;vertical-align: inherit&quot;&gt;sd 搜索课程&lt;/font&gt;&lt;/font&gt;&lt;/font&gt;&lt;/font&gt;&lt;br&gt;&lt;/font&gt;&lt;/font&gt;&lt;/span&gt;" style="text;html=1;resizable=0;autosize=1;align=center;verticalAlign=middle;points=[];fillColor=none;strokeColor=none;rounded=0;" vertex="1" parent="1">
          <mxGeometry x="90" y="80" width="140" height="20" as="geometry" />
        </mxCell>
        <mxCell id="oGuZRmNSNqqISoWWpiAV-9" value="&lt;font style=&quot;vertical-align: inherit&quot;&gt;&lt;font style=&quot;vertical-align: inherit ; font-size: 24px&quot;&gt;&lt;font style=&quot;vertical-align: inherit&quot;&gt;&lt;font style=&quot;vertical-align: inherit&quot;&gt;学生用户&lt;/font&gt;&lt;/font&gt;&lt;/font&gt;&lt;/font&gt;" style="whiteSpace=wrap;html=1;" vertex="1" parent="1">
          <mxGeometry x="100" y="165" width="120" height="60" as="geometry" />
        </mxCell>
        <mxCell id="oGuZRmNSNqqISoWWpiAV-10" value="" style="endArrow=none;dashed=1;html=1;" edge="1" parent="1">
          <mxGeometry width="50" height="50" relative="1" as="geometry">
            <mxPoint x="159.5" y="285" as="sourcePoint" />
            <mxPoint x="159.5" y="225" as="targetPoint" />
          </mxGeometry>
        </mxCell>
        <mxCell id="oGuZRmNSNqqISoWWpiAV-11" value="" style="rounded=0;whiteSpace=wrap;html=1;direction=south;" vertex="1" parent="1">
          <mxGeometry x="150" y="285" width="20" height="170" as="geometry" />
        </mxCell>
        <mxCell id="oGuZRmNSNqqISoWWpiAV-15" value="&lt;font style=&quot;font-size: 24px&quot;&gt;课程列表&lt;/font&gt;" style="whiteSpace=wrap;html=1;" vertex="1" parent="1">
          <mxGeometry x="320" y="165" width="120" height="60" as="geometry" />
        </mxCell>
        <mxCell id="oGuZRmNSNqqISoWWpiAV-17" value="" style="endArrow=none;dashed=1;html=1;" edge="1" parent="1">
          <mxGeometry width="50" height="50" relative="1" as="geometry">
            <mxPoint x="379.5" y="295" as="sourcePoint" />
            <mxPoint x="379.5" y="225" as="targetPoint" />
          </mxGeometry>
        </mxCell>
        <mxCell id="oGuZRmNSNqqISoWWpiAV-18" value="" style="rounded=0;whiteSpace=wrap;html=1;direction=south;" vertex="1" parent="1">
          <mxGeometry x="370" y="285" width="20" height="95" as="geometry" />
        </mxCell>
        <mxCell id="oGuZRmNSNqqISoWWpiAV-19" value="" style="endArrow=classic;html=1;" edge="1" parent="1">
          <mxGeometry width="50" height="50" relative="1" as="geometry">
            <mxPoint x="170" y="320" as="sourcePoint" />
            <mxPoint x="366" y="321" as="targetPoint" />
            <Array as="points">
              <mxPoint x="280" y="321" />
              <mxPoint x="330" y="321" />
            </Array>
          </mxGeometry>
        </mxCell>
        <mxCell id="oGuZRmNSNqqISoWWpiAV-20" value="&lt;font style=&quot;font-size: 15px&quot;&gt;1.输入要查询课程的名字&lt;/font&gt;" style="text;html=1;resizable=0;autosize=1;align=center;verticalAlign=middle;points=[];fillColor=none;strokeColor=none;rounded=0;" vertex="1" parent="1">
          <mxGeometry x="175" y="300" width="180" height="20" as="geometry" />
        </mxCell>
        <mxCell id="oGuZRmNSNqqISoWWpiAV-21" value="&lt;font style=&quot;font-size: 24px&quot;&gt;数据库&lt;/font&gt;" style="whiteSpace=wrap;html=1;" vertex="1" parent="1">
          <mxGeometry x="580" y="165" width="120" height="60" as="geometry" />
        </mxCell>
        <mxCell id="oGuZRmNSNqqISoWWpiAV-22" value="" style="rounded=0;whiteSpace=wrap;html=1;direction=south;" vertex="1" parent="1">
          <mxGeometry x="630" y="285" width="20" height="170" as="geometry" />
        </mxCell>
        <mxCell id="oGuZRmNSNqqISoWWpiAV-24" value="" style="endArrow=none;dashed=1;html=1;" edge="1" parent="1">
          <mxGeometry width="50" height="50" relative="1" as="geometry">
            <mxPoint x="640" y="295" as="sourcePoint" />
            <mxPoint x="640" y="225" as="targetPoint" />
            <Array as="points">
              <mxPoint x="640" y="295" />
              <mxPoint x="640" y="275" />
              <mxPoint x="640" y="245" />
            </Array>
          </mxGeometry>
        </mxCell>
        <mxCell id="oGuZRmNSNqqISoWWpiAV-25" value="" style="endArrow=classic;html=1;" edge="1" parent="1">
          <mxGeometry width="50" height="50" relative="1" as="geometry">
            <mxPoint x="390" y="320" as="sourcePoint" />
            <mxPoint x="620" y="320" as="targetPoint" />
          </mxGeometry>
        </mxCell>
        <mxCell id="oGuZRmNSNqqISoWWpiAV-26" value="&lt;font style=&quot;font-size: 15px&quot;&gt;2.得到所查询课程信息&lt;/font&gt;" style="text;html=1;resizable=0;autosize=1;align=center;verticalAlign=middle;points=[];fillColor=none;strokeColor=none;rounded=0;" vertex="1" parent="1">
          <mxGeometry x="420" y="300" width="160" height="20" as="geometry" />
        </mxCell>
        <mxCell id="oGuZRmNSNqqISoWWpiAV-27" value="&lt;font style=&quot;font-size: 15px&quot;&gt;3.返回所查询课程信息&lt;/font&gt;" style="html=1;verticalAlign=bottom;endArrow=open;dashed=1;endSize=8;" edge="1" parent="1">
          <mxGeometry relative="1" as="geometry">
            <mxPoint x="630" y="440" as="sourcePoint" />
            <mxPoint x="180" y="440" as="targetPoint" />
          </mxGeometry>
        </mxCell>
      </root>
    </mxGraphModel>
  </diagram>
</mxfile>
